HIERARCHY
ROOT Hips
{
	OFFSET 0.00000 0.00000 0.00000
	CHANNELS 6 Xposition Yposition Zposition Zrotation Yrotation Xrotation 
	JOINT LHipJoint
	{
		OFFSET 0 0 0
		CHANNELS 3 Zrotation Yrotation Xrotation
		JOINT LeftUpLeg
		{
			OFFSET 1.53927 -1.56553 0.51726
			CHANNELS 3 Zrotation Yrotation Xrotation
			JOINT LeftLeg
			{
				OFFSET 2.38199 -6.54447 0.00000
				CHANNELS 3 Zrotation Yrotation Xrotation
				JOINT LeftFoot
				{
					OFFSET 2.35499 -6.47028 0.00000
					CHANNELS 3 Zrotation Yrotation Xrotation
					JOINT LeftToeBase
					{
						OFFSET 0.13641 -0.37478 1.84251
						CHANNELS 3 Zrotation Yrotation Xrotation
						End Site
						{
							OFFSET 0.00000 -0.00000 0.95212
						}
					}
				}
			}
		}
	}
	JOINT RHipJoint
	{
		OFFSET 0 0 0
		CHANNELS 3 Zrotation Yrotation Xrotation
		JOINT RightUpLeg
		{
			OFFSET -1.43919 -1.56553 0.51726
			CHANNELS 3 Zrotation Yrotation Xrotation
			JOINT RightLeg
			{
				OFFSET -2.34860 -6.45274 0.00000
				CHANNELS 3 Zrotation Yrotation Xrotation
				JOINT RightFoot
				{
					OFFSET -2.25563 -6.19730 0.00000
					CHANNELS 3 Zrotation Yrotation Xrotation
					JOINT RightToeBase
					{
						OFFSET -0.19755 -0.54277 1.84912
						CHANNELS 3 Zrotation Yrotation Xrotation
						End Site
						{
							OFFSET -0.00000 -0.00000 0.97032
						}
					}
				}
			}
		}
	}
	JOINT LowerBack
	{
		OFFSET 0 0 0
		CHANNELS 3 Zrotation Yrotation Xrotation
		JOINT Spine
		{
			OFFSET -0.06402 1.88434 -0.00445
			CHANNELS 3 Zrotation Yrotation Xrotation
			JOINT Spine1
			{
				OFFSET 0.00756 1.88511 0.04237
				CHANNELS 3 Zrotation Yrotation Xrotation
				JOINT Neck
				{
					OFFSET 0 0 0
					CHANNELS 3 Zrotation Yrotation Xrotation
					JOINT Neck1
					{
						OFFSET -0.06230 1.34710 0.03308
						CHANNELS 3 Zrotation Yrotation Xrotation
						JOINT Head
						{
							OFFSET -0.02442 1.34501 -0.13654
							CHANNELS 3 Zrotation Yrotation Xrotation
							End Site
							{
								OFFSET -0.00508 1.35584 -0.05075
							}
						}
					}
				}
				JOINT LeftShoulder
				{
					OFFSET 0 0 0
					CHANNELS 3 Zrotation Yrotation Xrotation
					JOINT LeftArm
					{
						OFFSET 2.76911 0.54460 0.39412
						CHANNELS 3 Zrotation Yrotation Xrotation
						JOINT LeftForeArm
						{
							OFFSET 4.40919 -0.00000 -0.00000
							CHANNELS 3 Zrotation Yrotation Xrotation
							JOINT LeftHand
							{
								OFFSET 3.03857 -0.00000 -0.00000
								CHANNELS 3 Zrotation Yrotation Xrotation
								JOINT LeftFingerBase
								{
									OFFSET 0 0 0
									CHANNELS 3 Zrotation Yrotation Xrotation
									JOINT LeftHandIndex1
									{
										OFFSET 0.52321 -0.00000 -0.00000
										CHANNELS 3 Zrotation Yrotation Xrotation
										End Site
										{
											OFFSET 0.42182 -0.00000 -0.00000
										}
									}
								}
								JOINT LThumb
								{
									OFFSET 0 0 0
									CHANNELS 3 Zrotation Yrotation Xrotation
									End Site
									{
										OFFSET 0.42826 -0.00000 0.42826
									}
								}
							}
						}
					}
				}
				JOINT RightShoulder
				{
					OFFSET 0 0 0
					CHANNELS 3 Zrotation Yrotation Xrotation
					JOINT RightArm
					{
						OFFSET -2.99050 0.75949 0.48975
						CHANNELS 3 Zrotation Yrotation Xrotation
						JOINT RightForeArm
						{
							OFFSET -4.61969 -0.00000 -0.00000
							CHANNELS 3 Zrotation Yrotation Xrotation
							JOINT RightHand
							{
								OFFSET -3.09382 -0.00000 -0.00000
								CHANNELS 3 Zrotation Yrotation Xrotation
								JOINT RightFingerBase
								{
									OFFSET 0 0 0
									CHANNELS 3 Zrotation Yrotation Xrotation
									JOINT RightHandIndex1
									{
										OFFSET -0.50090 -0.00000 -0.00000
										CHANNELS 3 Zrotation Yrotation Xrotation
										End Site
										{
											OFFSET -0.40384 -0.00000 -0.00000
										}
									}
								}
								JOINT RThumb
								{
									OFFSET 0 0 0
									CHANNELS 3 Zrotation Yrotation Xrotation
									End Site
									{
										OFFSET -0.41000 -0.00000 0.41000
									}
								}
							}
						}
					}
				}
			}
		}
	}
}
MOTION
Frames: 10
Frame Time: .0083333
1.561 16.3176 -0.1255 0 0 0 0 0 0 -21 0 0 0 0 0 0 0 0 0 0 0 0 0 0 21 0 0 0 0 0 0 0 0 0 0 0 0 0 0 0 0 0 0 0 0 0 0 -16 0 0 21 0 0 11 0 0 0 -8 0 0 0 0 0 0 0 0 0 0 0 0 0 0 0 0 0 0 0 0 8 0 0 0 0 0 0 0 0 0 0 0 0 0 0 0 0 0
1.5610 16.3176 -0.1255 171.1700 -79.0679 -164.5260 0.0000 0.0000 0.0000 -24.8554 -29.7058 8.0036 0.5000 4.5334 12.5824 -5.0411 37.0211 -25.1253 1.2460 7.0774 19.9448 0.0000 0.0000 0.0000 11.8737 20.7343 1.6056 -0.1173 -2.2083 6.0817 0.2400 -13.4684 -15.9228 -0.3488 -3.7946 10.4995 -3.4017 0.2147 -3.9320 0.2965 0.1620 -5.7335 2.2170 0.1472 -3.7315 -3.6753 -3.9162 2.3852 -2.1532 -5.3362 10.2946 -0.1707 -2.9608 2.9093 -0.0000 -0.0000 0.0000 -95.9387 14.5442 10.9214 17.0497 -26.9233 -4.1098 -0.0000 -0.0000 21.2798 20.3283 -19.8424 -7.1674 -7.1250 0.0000 -0.0000 -5.1727 9.0011 4.3178 -0.0000 -0.0000 0.0000 89.0960 -14.5097 34.4216 -16.1314 25.6984 -3.7027 0.0000 0.0000 7.6573 -12.7160 -49.2504 9.7009 7.1250 -0.0000 -0.0000 53.2237 -74.4679 -39.5111
1.5604 16.3184 -0.1283 171.3700 -79.1122 -164.7110 0.0000 0.0000 0.0000 -24.8223 -29.8332 8.0120 0.5061 4.5606 12.6593 -5.0778 37.1291 -25.2083 1.2117 6.9830 19.6651 0.0000 0.0000 0.0000 11.9050 20.6058 1.8555 -0.0960 -1.9984 5.5014 0.2757 -13.6280 -15.6451 -0.3532 -3.8181 10.5654 -3.3501 0.2102 -3.9749 0.3287 0.1613 -5.6792 2.2214 0.1445 -3.6499 -3.6718 -4.0124 1.8522 -2.2592 -5.4241 10.5303 -0.2251 -3.0128 3.0852 0.0000 0.0000 0.0000 -95.9524 14.5333 11.0060 17.1238 -27.0207 -4.1434 -0.0000 -0.0000 21.2062 20.3292 -19.7993 -7.1529 -7.1250 0.0000 -0.0000 -5.1691 9.0459 4.3101 0.0000 0.0000 0.0000 89.0532 -14.5107 34.5635 -16.2017 25.7933 -3.7333 0.0000 0.0000 7.5716 -12.8317 -49.1876 9.7813 7.1250 -0.0000 -0.0000 52.9348 -74.4792 -39.2816
1.5608 16.3280 -0.1321 171.6580 -79.1542 -164.9490 0.0000 0.0000 0.0000 -24.4528 -28.4827 7.3894 0.5143 4.5968 12.7619 -4.6361 35.8765 -24.6565 1.1315 6.7559 18.9942 0.0000 0.0000 0.0000 11.9713 20.5823 1.8292 -0.0932 -1.9694 5.4211 0.2825 -13.6618 -15.5984 -0.3546 -3.8256 10.5864 -3.3037 0.2442 -4.0254 0.3666 0.2110 -5.6446 2.2351 0.1676 -3.5881 -3.7429 -3.8664 2.0783 -2.1399 -5.2477 10.2965 -0.1608 -2.9170 2.9679 0.0000 0.0000 0.0000 -95.9071 14.5070 11.2369 17.1495 -27.0544 -4.1551 -0.0000 -0.0000 21.1759 20.2399 -19.7849 -7.1142 -7.1250 0.0000 -0.0000 -5.2256 9.0735 4.3548 0.0000 0.0000 0.0000 89.0102 -14.4739 34.6142 -16.2099 25.8044 -3.7369 0.0000 0.0000 7.3862 -12.9283 -49.4314 9.8914 7.1250 -0.0000 -0.0000 53.6360 -74.6407 -40.0258
1.5657 16.3206 -0.1347 171.8460 -79.1794 -165.0960 0.0000 0.0000 0.0000 -24.6256 -29.9761 7.8330 0.5192 4.6182 12.8226 -5.0281 37.0496 -25.4559 1.2423 7.0675 19.9155 0.0000 0.0000 0.0000 11.9912 20.5358 1.8929 -0.0841 -1.8704 5.1476 0.3004 -13.7434 -15.4593 -0.3461 -3.7803 10.4593 -3.2732 0.2769 -4.0333 0.3875 0.2573 -5.6124 2.2399 0.1898 -3.5526 -2.9313 -3.9326 1.1016 -3.3221 -5.2017 11.2747 -0.7230 -2.9348 3.4262 0.0000 0.0000 0.0000 -95.8228 14.4252 11.5295 17.1284 -27.0268 -4.1455 -0.0000 -0.0000 21.0224 20.1161 -19.6604 -7.0251 -7.1250 0.0000 -0.0000 -5.2968 9.2204 4.3990 0.0000 0.0000 0.0000 89.0274 -14.3766 34.4999 -16.1926 25.7811 -3.7293 0.0000 0.0000 7.2559 -12.9124 -49.4857 9.8869 7.1250 -0.0000 -0.0000 53.8228 -74.6621 -40.2034
1.5654 16.3254 -0.1372 172.0550 -79.1696 -165.2720 0.0000 0.0000 0.0000 -24.5930 -30.1403 7.8824 0.5218 4.6296 12.8552 -4.6604 36.4133 -26.8955 1.5814 7.9336 22.5126 0.0000 0.0000 0.0000 12.0197 20.5273 1.9605 -0.0767 -1.7864 4.9157 0.3142 -13.8078 -15.3526 -0.3298 -3.6908 10.2083 -3.2464 0.2834 -4.0785 0.3994 0.2716 -5.5440 2.2374 0.1950 -3.4563 -2.8043 -3.8924 1.1110 -3.3314 -5.1460 11.0372 -0.7396 -2.8939 3.3375 0.0000 -0.0000 0.0000 -95.7667 14.3034 11.6888 17.1454 -27.0491 -4.1533 -0.0000 -0.0000 20.8199 19.9233 -19.2537 -6.8157 -7.1250 0.0000 -0.0000 -5.3945 9.6707 4.4319 0.0000 -0.0000 0.0000 89.0696 -14.2136 34.4526 -16.1686 25.7488 -3.7189 0.0000 0.0000 7.2757 -13.0876 -49.6130 10.0416 7.1250 -0.0000 -0.0000 54.1031 -74.7925 -40.5679
1.5650 16.3273 -0.1412 172.1520 -79.2107 -165.3060 0.0000 0.0000 0.0000 -24.5430 -30.3379 7.8791 0.5219 4.6300 12.8561 -4.8636 36.8314 -26.4423 1.3386 7.3258 20.6841 0.0000 0.0000 0.0000 12.0484 20.5568 1.7565 -0.0847 -1.8776 5.1675 0.3047 -13.7702 -15.4394 -0.3275 -3.6779 10.1721 -3.2239 0.2508 -4.1203 0.4054 0.2327 -5.4877 2.2308 0.1738 -3.3711 -2.6710 -3.7518 1.0971 -3.3245 -4.9558 10.8374 -0.7503 -2.7871 3.2674 -0.0000 0.0000 0.0000 -95.7235 14.1911 11.7677 17.1930 -27.1115 -4.1749 -0.0000 -0.0000 20.6033 19.7563 -18.9278 -6.6452 -7.1250 0.0000 -0.0000 -5.4822 10.0325 4.4644 -0.0000 0.0000 0.0000 89.1133 -14.0492 34.4993 -16.1338 25.7018 -3.7038 0.0000 0.0000 7.2237 -13.4167 -49.6001 10.2960 7.1250 -0.0000 -0.0000 53.8121 -74.9118 -40.4406
1.5668 16.3280 -0.1442 172.0080 -79.2841 -165.1350 0.0000 0.0000 0.0000 -24.4614 -30.2327 7.7586 0.5194 4.6189 12.8248 -4.6302 36.3364 -26.8981 1.5769 7.9229 22.4801 0.0000 0.0000 0.0000 12.0322 20.4921 1.6961 -0.0851 -1.8819 5.1793 0.3107 -13.8056 -15.4061 -0.3422 -3.7590 10.3995 -3.2068 0.2332 -4.1923 0.4049 0.2189 -5.3637 2.2206 0.1642 -3.2000 -2.6579 -3.6465 0.9572 -3.2863 -4.8072 10.7517 -0.7380 -2.7080 3.2649 -0.0000 -0.0000 0.0000 -95.5923 13.9409 12.1657 17.1271 -27.0250 -4.1449 -0.0000 -0.0000 20.1890 19.9177 -18.9751 -6.7196 -7.1250 0.0000 -0.0000 -5.3802 9.9618 4.3882 -0.0000 -0.0000 0.0000 89.1340 -13.8331 34.4747 -16.1243 25.6889 -3.6997 0.0000 0.0000 7.0857 -13.5995 -49.4067 10.4091 7.1250 -0.0000 -0.0000 53.0386 -74.8840 -39.7638
1.5705 16.3251 -0.1470 171.8890 -79.2847 -164.9630 0.0000 0.0000 0.0000 -24.3727 -30.1300 7.6090 0.5146 4.5977 12.7647 -4.8917 36.7706 -25.8007 1.2760 7.1589 20.1871 0.0000 0.0000 0.0000 11.9919 20.5029 1.6230 -0.0845 -1.8746 5.1593 0.3132 -13.8208 -15.3946 -0.3428 -3.7621 10.4082 -3.2340 0.2327 -4.2748 0.4306 0.2271 -5.2749 2.2627 0.1679 -3.0621 -2.7177 -3.6284 0.7402 -3.3143 -4.7667 10.8027 -0.7427 -2.6925 3.3245 0.0000 -0.0000 0.0000 -95.5320 13.6589 12.4078 16.9656 -26.8124 -4.0718 -0.0000 -0.0000 20.0446 20.2532 -19.1806 -6.9121 -7.1250 0.0000 -0.0000 -5.1757 9.7022 4.2473 0.0000 -0.0000 0.0000 89.1372 -13.8384 34.2942 -16.2743 25.8911 -3.7649 0.0000 0.0000 7.1821 -13.7718 -49.7297 10.5927 7.1250 -0.0000 -0.0000 53.9752 -75.1124 -40.7753
1.5741 16.3255 -0.1516 172.0730 -79.2441 -165.0560 0.0000 0.0000 0.0000 -24.2127 -29.9132 7.4058 0.5117 4.5849 12.7284 -4.8404 36.6116 -25.6622 1.2716 7.1472 20.1523 0.0000 0.0000 0.0000 12.0004 20.5886 1.4907 -0.0857 -1.8888 5.1983 0.3091 -13.8010 -15.4244 -0.3322 -3.7040 10.2452 -3.2529 0.2355 -4.2376 0.4783 0.2271 -5.3409 2.3225 0.1707 -3.1524 -2.9419 -3.5369 1.1152 -3.0979 -4.6779 10.5297 -0.6170 -2.6412 3.1718 0.0000 -0.0000 0.0000 -95.6490 13.6246 12.0781 16.8833 -26.7037 -4.0348 -0.0000 -0.0000 20.4239 20.3544 -19.2257 -6.9649 -7.1250 0.0000 -0.0000 -5.1131 9.6412 4.2018 0.0000 -0.0000 0.0000 89.1695 -14.2463 33.9899 -16.6033 26.3318 -3.9097 0.0000 0.0000 7.4938 -13.8777 -50.1531 10.7405 7.1250 -0.0000 -0.0000 55.3382 -75.3577 -42.1755
